<?xml version="1.0" encoding="utf-8"?>
<!-- Generator: Adobe Illustrator 22.1.0, SVG Export Plug-In . SVG Version: 6.00 Build 0)  -->
<svg version="1.1" id="svg2" xmlns:svg="http://www.w3.org/2000/svg"
	 xmlns="http://www.w3.org/2000/svg" xmlns:xlink="http://www.w3.org/1999/xlink" x="0px" y="0px" viewBox="0 0 1085.4 747.8"
	 style="enable-background:new 0 0 1085.4 747.8;" xml:space="preserve">
<style type="text/css">
	.st0{fill:#D3D3D3;}
</style>
<g>
	<g id="Canada">
		<path id="CA-ON_1_" class="st0" d="M839.1,98.3c0.7,0,1.3,0.5,1.3,1.2c0.3,2.6,0.6,5.6,0.8,7.3c1.5,12,2.5,20.2,3,25.4
			c0.3,3.2,2,8.9,3.6,12.6c2.5,5.7,3.9,7.4,8.8,10.8c6.5,4.6,15.5,7.8,24.6,8.7c4.1,0.4,7.4,1.5,10.6,3.6c2.5,1.6,5.4,2.9,6.5,3
			c1.1,0,3.1,1.7,4.6,3.9l2.3,3.3c0.3,0.4,0.7,0.6,1.2,0.6l7.9-0.4c7.5-0.4,9.5-0.9,14.9-3.9c6.3-3.5,11.4-5.1,11.5-3.6
			c0.2,1.5,0.7,4.1,1.4,6.2c0.5,1.7-0.1,2.8-3.1,5.4c-6.2,5.3-11.4,10.8-18.8,20c-3.8,4.8-7.4,8.7-8,8.8c-1.7,0.1-5.7,3.9-5.1,4.8
			c1.2,1.9-6.9,4.9-13.5,5.1c-11.9,0.4-29.1,7.4-32.8,13.5c-3.6,6-3.6,7.5,0.2,9c1.9,0.8,4.3,1.2,5.4,0.9c1.5-0.4,2.3,0.3,3.6,3
			c1.9,4.1,1.3,4.6-5.4,4.6c-4,0-15,4.1-17.8,6.7c-1.3,1.2-1.2,1.6,1,3.3l0.2,0.2c0.9,0.7,0.6,2.1-0.5,2.4l0,0
			c-1.5,0.4-4.7,0.2-7.2-0.4c-9.5-2.4-11.7-1.3-23.5,11c-6.5,6.8-8,7.9-11,7.9c-1.9,0-5,0.2-6.7,0.4l-0.7,0.1c-1.1,0.1-1.8-1-1.3-2
			l0.3-0.6c1.1-2,2.4-3,5.2-3.4c2.1-0.3,4.4-1,5.1-1.5c1.9-1.2,2.8-8.2,1.3-9.1c-0.9-0.5-1-1.3-0.3-2.6c0.5-1,1.3-3.6,1.6-5.6
			c0.4-2,1.5-4.3,2.5-5c3.6-2.5,6.7-8.4,6.4-11.9c-0.2-1.9-0.4-7-0.5-11.5c-0.1-7.6,0.1-8.5,3.4-14.5l3.3-5.8
			c0.2-0.4,0.2-0.8,0.1-1.2l-1.5-3.3c-1-2.2-2.8-4.8-3.9-5.9c-2.1-1.9-2.9-4.6-1.4-4.6c0.4,0,3.4,2.7,6.6,6
			c5.3,5.4,10.7,8.9,16.1,10.4c5.5,1.5,8.5-7.7,4.4-13.5c-2.6-3.8-13.5-15.6-16.3-17.7c-1-0.8-4.9-1.8-8.5-2.2
			c-3.6-0.4-9.1-1.5-12.1-2.3c-3.9-1.1-9.7-1.6-20.2-1.6c-13.7,0-14.8-0.1-16.2-2.1c-0.8-1.1-3.8-3.3-6.7-4.8
			c-4.3-2.2-5.3-3.2-5.4-5.4c-0.1-1.5-1.4-4-3-5.7c-2.5-2.6-2.6-3.1-1.2-3.6c2.2-0.9,2.1-3-0.4-6.5c-1.1-1.6-2.9-4.8-4-7.3
			c-1.7-3.9-2.4-4.5-5.8-5c-3.8-0.6-14.5-5.7-17-8.2c-0.8-0.7-1.5-3-1.6-5.1c-0.1-2.1-0.6-5.1-1-6.7l-0.5-1.8
			c-0.2-0.6-0.8-1.1-1.4-1l-7,0.5c-7.5,0.5-8.5,0.3-13.9-2.4l-5.1-2.6c-0.4-0.2-0.9-0.2-1.3,0.1l-3.5,2.2c-3.8,2.4-4,2.7-2.6,4.2
			c1.4,1.4,1,2-5.1,5.9c-3.7,2.4-8.3,6.1-10.3,8.2c-4,4.3-4.5,4.4-18.9,2c-4.1-0.7-10.7-1.3-14.6-1.4c-6.7-0.2-13.4-2.6-13.4-4.7
			c0-0.4-1.2-0.8-2.6-0.8c-1.6,0-4-1.4-6.2-3.5c-3.7-3.5-3.8-3.5-12.9-3.5c-6.6,0-9.6-0.4-10.6-1.4c-0.8-0.8-3.2-1.7-5.3-2.1
			c-5.5-1-6.1-1.7-6.8-8.7c-0.3-3.1-0.6-4.7-1.2-5.8c-0.5-0.9,0.2-2,1.2-2L839.1,98.3z"/>
	</g>
	<g id="USA">
		<path id="US-AL" class="st0" d="M710.1,604.3c-0.4-1.2-1.4-1.4-4.1-0.9l-3.5,0.7l0.6-37.9c0.3-20.8,0.8-39.9,1-42.4
			c0.2-2.5,0.8-8.3,1.2-13c0.4-4.7,0.9-9.3,1-10.2c0.2-0.9,0.6-5.6,1-10.4c0.4-4.8,0.8-9.4,0.9-10.3c0.2-1.1,1.4-1.6,4.1-1.7
			c2.1-0.1,13.2-0.4,24.6-0.8l20.7-0.6l1,3.7c0.5,2.1,1.5,6,2.1,8.7c0.6,2.8,2,7.7,3.1,11c1.8,5.6,3.1,12.8,4.4,24.3
			c0.3,2.6,1.9,7.3,3.5,10.5c3.1,6,3.2,6.6,2.8,22.8c-0.2,8.1,0.1,10.8,2.1,19.3c0.5,2.1,0.6,3.9,0.2,4.1s-6.7,0.4-14.1,0.5
			c-7.4,0.1-19.6,0.4-27,0.8c-11.9,0.5-13.7,0.8-15.2,2.6c-2.2,2.5-2.2,2.2,0.6,9.3c1.3,3.3,2.7,7.2,3,8.7l0.7,2.8h-7.1
			C712.3,605.8,710.5,605.5,710.1,604.3z"/>
		<path id="US-AR" class="st0" d="M577.5,521.9l-0.3-7.5l-3.2-0.9c-3.8-1.1-3.5,1.3-3.2-28.1c0.1-11,0.2-26.2,0.1-33.8l-0.1-13.8
			l44,0.4c24.2,0.2,44.3,0.7,44.6,1c0.3,0.3,0,2.7-0.7,5.2c-1.5,5.2-1.2,5.7,4.8,7.3c2.3,0.7,4.2,1.7,4.2,2.3c0,0.6-1.5,3.6-3.4,6.8
			c-1.8,3.1-3.9,7.9-4.5,10.7c-0.8,3.2-2.6,6.5-5.1,9.4c-2.8,3.2-4.1,5.8-4.6,9c-0.4,2.9-2,6.3-4.5,9.6c-5.5,7.2-7.1,12.5-7,22
			l0.1,8h-30.5h-30.5L577.5,521.9z"/>
		<path id="US-AZ" class="st0" d="M225.2,526.7c-4.9-1.1-11.3-2.6-14.2-3.4c-2.8-0.8-6.9-1.5-9-1.5c-3.2,0-5-0.9-10.3-5.2
			c-3.6-2.9-7.4-6.1-8.5-7.1c-1.1-1-6.1-4.6-11-7.9c-10.8-7.3-26.6-19.3-31.5-23.7c-1.9-1.7-5.1-3.8-7-4.6c-3.7-1.5-9.5-7.8-8.6-9.3
			c0.3-0.5,3-1.9,6.1-3.1c5.1-2.1,5.5-2.5,5.5-5.5c0-2-0.8-3.9-2-5c-2.9-2.6-2.5-5,1.5-9.1c2-2,4.4-5.4,5.5-7.5
			c1.2-2.3,2.7-3.9,3.8-3.9c1,0,3-1.3,4.6-2.9l2.8-2.9l-2.3-4.4c-1.9-3.6-2.3-6-2.3-13.1c0-4.8,0.3-8.8,0.6-8.8c0.3,0,1-3.9,1.4-8.8
			c0.5-6.2,1.3-9.6,2.7-11.5c1.9-2.6,2.3-2.7,7.7-2.2l5.7,0.6l3.2-8.6c1.8-4.7,3.6-8.8,4-9c0.8-0.5,95.3,22.8,97,23.8
			c0.6,0.4,0.7,1.5,0.1,2.9c-0.5,1.3-1.1,3.6-1.4,5.2c-0.3,1.6-3.7,16.9-7.6,33.9c-3.9,17.1-7.3,31.9-7.5,33s-2.3,10.1-4.5,20
			c-2.3,9.9-5.8,25.5-7.8,34.8C237.7,531.3,239.4,529.8,225.2,526.7z"/>
		<g id="US-CA">
			<path class="st0" d="M118.6,460.8c-1.6-1-22.4-6.6-35.2-9.6c-8.9-2.1-9.7-3.3-10.2-16.4c-0.4-9.6-0.6-10.5-4.1-16.2
				c-2-3.3-5.4-7.2-7.5-8.7s-4.3-3.9-5-5.3s-2.8-4.1-4.9-5.8c-2.1-1.7-5.2-5.2-7-7.9c-3.6-5.2-8.5-9.2-11.6-9.2
				c-2.9,0-9-4.1-11.9-7.9c-2.8-3.8-2.7-8.1,0.2-11.3c2.2-2.5,1.9-6.5-1.7-18.8c-1.7-5.8-3-11.7-3-13.1c0-1.4-1.5-5-3.3-8
				c-3.8-6.3-3.8-6.5-1.2-10.4c2.8-4.2,2.6-12.5-0.4-16.6c-1.9-2.6-2.2-3.8-1.6-8c0.4-2.7,1.5-6,2.6-7.4c2.7-3.5,1.7-7.4-2.8-11.3
				c-3.3-2.8-3.8-3.8-3.9-8c-0.1-2.6-1.1-6.9-2.3-9.6c-1.2-2.7-2.7-7.4-3.3-10.5c-1.1-5.4-1-6.3,2.4-16.9l3.5-11.2L4,206.7
				c-2.4-6.1-2.5-6.2-0.7-10.1c1-2.2,2.8-5.1,4.1-6.6c1.3-1.5,4.8-6.4,7.8-10.9c4.7-7,5.5-8.9,5.6-13.2c0.1-3.2,0.5-4.9,1.2-4.6
				c1.2,0.4,29.1,10.5,45.6,16.5c5.8,2.1,15.1,5.5,20.7,7.5c10.1,3.7,10.2,3.7,9.2,6.3c-0.6,1.4-3.2,8.7-5.8,16.1
				c-2.6,7.4-7.1,20-10,28c-2.8,8-6.1,17.1-7.2,20.3c-2,5.7-2,12.5,0,15.1c0.5,0.6,3.4,5.8,6.4,11.6c18.3,34.7,62.2,116.7,63,117.8
				c0.6,0.7,0.9,4.4,0.8,8.2c-0.2,5.3,0.3,7.8,1.9,11c2.4,4.8,2.1,5.7-2.3,6.8c-2.4,0.6-3.8,1.9-5.5,5.3c-1.3,2.4-3.9,6-5.8,8
				c-4,4.2-4.6,8.8-1.4,12.2c2.9,3.2,2.5,4-3.3,6.5C120.9,461.8,120.4,461.9,118.6,460.8z"/>
			<path class="st0" d="M49,430.5c-3.1-1.6-1.5-4.2,2.1-3.3c2.9,0.7,3.3,1.8,1.4,3.4C51.6,431.3,50.5,431.3,49,430.5z"/>
			<path class="st0" d="M52,417.3c-1.6-1.8-1.6-3.5,0-3.5c1.7,0,3.7,2,3.7,3.7C55.7,419.2,53.5,419.1,52,417.3z"/>
			<path class="st0" d="M30.7,394c-3.7-0.7-9-3.8-9-5.2c0-0.5,2.4-0.9,5.4-0.9c3.9,0,6.3,0.6,8.8,2.3c1.9,1.3,3.4,2.7,3.4,3.2
				C39.2,394.5,35.4,394.8,30.7,394z"/>
		</g>
		<path id="US-CO" class="st0" d="M403.7,404.1c-4.4-1.1-19.7-4.2-33.5-6.9c-1.1-0.2-4.2-0.8-7-1.4c-2.8-0.5-6.1-1.2-7.5-1.4
			c-2.4-0.4-16.2-3-51-9.7c-8.5-1.6-18.4-3.6-22-4.2c-4.6-0.9-6.4-1.7-6.3-2.7c0.1-0.8,3.6-17,7.9-35.9c4.2-19,7.9-35.4,8.1-36.5
			s1.7-7.6,3.2-14.5c2.4-10.9,3.1-12.5,4.7-12.3c1.1,0.1,6.4,1.1,11.8,2.3c5.4,1.2,10.9,2.3,12.3,2.5c1.3,0.2,3.2,0.7,4.1,1
			c1,0.3,2.9,0.7,4.2,1c3.6,0.6,14.9,3,36.5,7.7c10.4,2.3,20.8,4.3,23,4.5c2.2,0.2,5.3,0.6,7,0.9c1.7,0.3,4.6,0.8,6.5,1.1
			c18.2,2.9,23.5,4.1,23.3,5.5c-1.1,7.7-6.4,46.4-6.8,49.5c-0.3,2.2-0.7,5.1-0.9,6.5c-0.2,1.4-0.6,4.1-0.9,6c-0.3,1.9-1.4,10-2.5,18
			s-2.2,15.8-2.4,17.5c-0.3,2.5-0.8,3-3.3,3.1C410.5,405.4,406.7,404.9,403.7,404.1z"/>
		<path id="US-CT" class="st0" d="M985,277.6c0.2-0.7-0.3-3.3-1.3-5.8c-0.9-2.5-1.5-5.4-1.4-6.5c0.2-1.1,0.4-3.4,0.5-5.1l0.2-3.1
			l11.1-2.3c6.1-1.3,11.6-2.4,12.2-2.5c0.9-0.2,5.3,14.6,5.3,17.9c0,0.3-2.6,1.3-5.8,2.2c-8.7,2.4-15.6,4.8-16.7,5.7
			C987.8,279.3,984.5,279,985,277.6z"/>
		<path id="US-DC" class="st0" d="M924.8,349.5c-0.9-1.1-0.8-1.7,0.2-2.5c1.1-0.9,1.7-0.8,2.5,0.2c0.9,1.1,0.8,1.7-0.2,2.5
			C926.3,350.6,925.7,350.5,924.8,349.5z"/>
		<path id="US-DE" class="st0" d="M951.9,348.1c-1.1-4.3-2.6-10.9-3.3-14.6c-1.1-5.8-1.1-7,0.2-7.7c2.5-1.6,2.9-1.1,2.9,2.9
			c0,7.6,0.9,9.5,5.9,12.5c4.5,2.7,10.1,10,10.1,13c0,0.9-2,1.4-6.9,1.5l-6.9,0.2L951.9,348.1z"/>
		<path id="US-FL" class="st0" d="M856.4,583c-0.6,0-1.2,0-1.8,0.1l-4.1,0.3l-0.3,5.3c-0.4,6.1-0.3,6.1-3.7,6.7
			c-1.9,0.3-2.9-0.2-4.1-2c-1.3-1.9-2.4-2.4-5.4-2.4c-2.1,0-15.3,0-29.4,0l-25.7-0.1l-0.7-3.1l-0.7-3.1l-26.1,0.7
			c-14.4,0.4-27.1,0.8-28.2,1s-2.3,0.4-2.8,0.5c-1.2,0.1-0.9,2.5,1.2,7.7c1.1,2.7,2.2,6.1,2.5,7.7c0.4,2,1.1,2.7,2.3,2.3
			c0.9-0.3,6.3-0.8,12-1.1l10.2-0.7l5.8,3.5c3.2,1.9,7.3,4,9.2,4.6c2.1,0.7,4.4,2.5,5.9,4.6c2.2,3.2,2.7,3.5,6,2.9
			c2-0.4,7.2-2.5,11.6-4.7c12.2-6.1,14.4-6.7,18-5c1.7,0.8,4.1,3,5.4,4.9c1.3,1.9,6.1,6.9,10.7,11c9.6,8.7,10.2,10,11,24.8
			c0.4,6.2,1.5,12.9,3,17.8c1.3,4.3,2.4,8.6,2.4,9.5c0,0.9,1.6,3,3.5,4.7c2.3,2,4.2,5.1,5.6,9c1.7,4.6,3.1,6.7,6,8.8
			c2.1,1.5,5.1,4.9,6.6,7.6c1.5,2.7,3.9,5.4,5.4,6c1.5,0.7,5.2,4.1,8.3,7.6c5.9,6.6,13.7,11.9,16.5,11.1c4-1.2,10.1-1.6,10.1-0.7
			c0,3.4-11,11.8-18.5,14.1c-2.2,0.7-4.4,1.7-5,2.3c-0.7,0.7-0.5,0.8,0.5,0.5c0.8-0.3,3.8-1.2,6.5-2.2c5.6-1.9,13.7-7.4,15.9-10.9
			c0.8-1.2,1.7-5.6,2.1-9.7c0.4-4.1,1.3-8.7,2.1-10.2c1.1-2.1,1.4-6.1,1.2-16.6c-0.3-13.2-0.4-14.1-3.3-19.8
			c-1.7-3.3-4.9-9.6-7.2-14.1s-4.6-10.3-5.2-13c-2.1-9.7-4.3-14.8-9.6-21.8c-8.3-10.9-19.6-35.4-19.6-42.3
			C862.5,584.5,860.4,583,856.4,583z M885.1,676c0.3,0,0.7,0.1,1,0.2c2.6,0.6,2.7,1,2.4,5.9c-0.3,5.7-1.5,6.6-5.8,4.4
			C877.8,684,880.1,675.9,885.1,676z"/>
		<path id="US-GA" class="st0" d="M844.6,590.1c-1.4-2.2-1.5-2.2-30.6-2.2h-29.2l-0.9-3.2c-0.5-1.8-1.4-3.1-2-3
			c-0.6,0.1-1.1,0.1-1.1-0.1s-0.7-4.2-1.6-8.8c-0.9-4.6-1.5-11.5-1.3-15.4c0.6-15.2,0.3-18.4-2.4-22.5c-2.4-3.7-3.9-9.9-5.3-22
			c-0.3-2.5-1.6-8.1-2.9-12.5c-3.8-13.1-5.7-21.4-5-22.5c0.3-0.6,1.6-0.9,2.8-0.9c2.1,0.1,15.1-0.8,22.7-1.7c1.9-0.2,7.4-0.7,12.2-1
			l8.7-0.6l-0.9,3c-0.7,2.5-0.5,3.4,1.8,5.5c1.5,1.4,3.6,2.8,4.8,3.1c1.2,0.4,4.7,3.8,7.9,7.6c3.1,3.8,8,8.8,10.8,11
			c6.1,4.8,15.5,16.4,19.1,23.7c1.4,2.9,3.4,5.4,4.3,5.7c1,0.3,2.6,2,3.6,3.8c2.6,4.5,6.7,8.8,8.4,8.8c0.9,0,1.2,0.6,0.8,1.8
			c-0.3,1-2.2,6.2-4.1,11.8c-2.4,7-3.5,11.8-3.5,15.8c0,4.2-0.3,5.6-1.2,5.1c-1.2-0.8-10.2-0.7-12.9,0.2c-1.3,0.4-1.5,1.3-0.9,4.3
			c0.4,2.1,0.4,4.7,0,5.7C846.1,592.2,846,592.2,844.6,590.1z"/>
		<path id="US-IA" class="st0" d="M632.1,328.8c-1.8-1.8-4.1-2-27.4-2.6c-14-0.4-28.2-0.8-31.5-0.9c-3.3-0.2-8.8-0.3-12.1-0.4
			l-6.1-0.1l-2-4.2c-1.1-2.3-2.3-7.2-2.6-10.8c-0.6-6.4-1.3-12.3-2.2-18.8c-0.2-1.8-1.5-5.5-2.9-8.1c-2.2-4.3-2.5-6.2-2.6-17.2
			c-0.1-6.8-0.1-13-0.1-13.7c0.1-1,10.1-1.2,48.3-1l48.2,0.3l0.8,3.5c0.4,1.9,1.1,6.2,1.4,9.5c0.7,6.6,3.2,11.2,6.8,12.1
			c1.2,0.3,2.8,1.8,3.4,3.3c0.6,1.5,2.1,3.9,3.4,5.4c3.8,4.6,2,16.1-2.9,18.6c-1,0.5-3.7,1.2-6,1.6c-4.2,0.7-4.3,0.8-4.3,4.9
			c-0.3,15.2-0.4,15.4-4.8,18.6C634.1,330.7,634,330.7,632.1,328.8z"/>
		<path id="US-ID" class="st0" d="M258.2,238.2c-2.2-0.7-17.3-5.3-33.5-10.4c-16.2-5.1-33.8-10.5-39-12.1s-14.2-4.4-19.8-6.1
			c-12-3.6-11.5-1.4-4.9-19.8c2.5-6.9,4.8-14.8,5.2-17.5c0.5-3.7,1.5-5.8,3.7-8.2c2.9-3,3-3.4,2.4-9c-0.4-3.2-0.7-6.1-0.7-6.3
			c-0.2-2.1,0.6-3.2,3.4-4.7c3.5-1.8,8.7-7.2,8.7-9c0-0.6,1.8-2.9,4-5l3.9-3.9l-1.5-8c-2.4-13.1-1.7-21,2.8-33.8
			c2.2-6.1,6.8-19.5,10.4-29.6s6.6-18.7,6.9-18.9c0.7-0.7,12.5,3,12.5,3.9c0,0.4-1.1,5.2-2.5,10.6c-1.7,6.5-2.5,12.5-2.5,17.4
			c0,4.1,0.1,8.4,0.1,9.5s1.7,5.1,3.8,9c2.1,3.9,4.2,8.6,4.6,10.5c0.7,3.4,4.1,9.1,5.7,9.8c1.4,0.6,0.8,4.6-1.2,7.7
			c-1.1,1.7-2,4.4-2,6.2c0,2.3-0.6,3.4-2.1,3.8c-2.3,0.7-3.9,4.2-3.9,8.5c0,2.4,0.5,3,3.4,3.8c1.9,0.5,4.5,0.7,5.9,0.5
			c2.1-0.4,2.7,0,3.6,2.9c0.6,1.8,1.3,5.6,1.7,8.3c0.3,2.7,0.8,5.2,1,5.5c0.2,0.3,0.6,2.1,0.9,4.1c1.3,7.8,2.5,11.3,4.7,13.6
			c2,2.1,2.8,2.3,7.8,1.8c3.7-0.4,7.9,0,12.3,1.1c3.7,0.9,7.5,1.4,8.5,1.1c2.9-0.9,4.6,0.8,4,4c-0.3,1.6-2.6,11.6-5.2,22.4
			c-2.6,10.7-5.7,23.6-6.9,28.5l-2.2,9L258.2,238.2z"/>
		<path id="US-IL" class="st0" d="M678.6,418.7c-0.4-11.3-1.1-12.5-11.4-19.9c-7-5.1-7.5-5.7-7-8.5c0.3-1.7,0.8-5.3,1.1-8.2
			c0.6-5.7-0.3-7.4-6.3-10.8c-3.1-1.8-5.3-5.1-5.3-7.9c0-0.7-2.8-4.4-6.2-8.1c-6.6-7.1-7.1-8-8-16l-0.6-5l4.8-3.7l4.8-3.7l0.1-8.8
			c0.1-4.8,0.3-8.9,0.4-9s1.5-0.5,2.9-0.7c7.7-1.4,11.7-6.7,12.4-16.1c0.3-4.3-0.1-5.6-2.6-9.2c-1.6-2.3-3-4.4-3-4.6
			c0-0.3,5.7-0.3,12.8-0.2c7,0.2,18.7,0.3,26,0.4l13.2,0.1v2.5c0,1.4,0.6,3.5,1.4,4.8c2.6,4.1,3.2,12,3.4,47.7
			c0.1,19.5,0.5,37.4,0.8,39.6c0.5,3.6,0,5-3.9,11.1c-3.9,6-4.5,7.8-5,14.1c-0.7,8.5-2.7,13.8-5.6,14.7c-1.2,0.4-2.6,1.5-3.1,2.6
			c-0.8,1.6-2.1,1.9-6.7,1.9c-3.8,0-6.2,0.5-7.5,1.7C678.8,421,678.7,421,678.6,418.7z"/>
		<path id="US-IN" class="st0" d="M707,396.1c0.3-2.1,2.3-6.6,4.5-10l4-6.3l-0.4-39.2c-0.2-21.6-0.5-40-0.8-41
			c-0.3-1.3,0.3-1.8,2.3-1.8c1.5,0,3.2-0.5,3.7-1c0.6-0.6,9.4-1.1,21.9-1.2c17.9-0.2,20.9,0,21.1,1.3c1.2,8.1,3.6,73.4,2.8,75.5
			c-0.3,0.8-1.7,1.5-3.2,1.5c-3.5,0-3.9,0.4-9.7,8c-6.7,8.9-7.3,9.4-10.8,9.5c-1.7,0.1-5.6,1.6-8.6,3.3c-4.9,2.9-6.3,3.2-12.5,3.1
			c-3.8-0.1-8.3,0.3-9.8,1C707,400.5,706.4,400.2,707,396.1z"/>
		<path id="US-KS" class="st0" d="M560.4,419.2c-0.1-0.1-4.7-0.5-10.2-0.9s-10.7-0.8-11.5-1s-5.8-0.7-11-1s-10.2-0.8-11-1
			c-0.8-0.2-6-0.6-11.5-1c-5.5-0.4-10.7-0.8-11.5-1s-5.8-0.6-11-1s-10.2-0.8-11-1c-0.8-0.2-5.8-0.6-11-1s-10.2-0.9-11-1
			c-0.8-0.2-6-0.6-11.5-1c-5.5-0.4-10.7-0.9-11.5-1c-0.8-0.2-3.1-0.3-5.1-0.4l-3.6-0.1l1.8-12.8c1-7,2-14.8,2.4-17.2
			c0.3-2.5,0.8-5.6,1-7c0.2-1.4,0.7-4.1,0.9-6s1-7.1,1.6-11.5c0.6-4.4,1.3-9.6,1.6-11.5c0.2-1.9,0.7-5.2,1-7.4l0.6-3.9l6.6,0.6
			c6.4,0.5,21.8,2.2,29.1,3.1c1.9,0.2,6.4,0.7,10,1.1c3.6,0.3,7.6,0.8,9,1s5.4,0.6,9,1s7.6,0.8,9,1c1.4,0.2,5.9,0.7,10,1
			s8.2,0.8,9,1s4.9,0.6,9,1s8.4,0.9,9.4,1.1c1,0.2,5.8,0.6,10.5,1c7.7,0.5,8.9,0.9,11.5,3.5c2.9,2.8,2.9,2.9,1.1,5.6
			c-1.5,2.3-1.6,3.3-0.6,6.6c0.6,2.1,1.8,3.9,2.6,3.9c0.8,0,1.9,0.8,2.4,1.8c1.7,3.2,2.3,30.6,1,43.9l-1.2,12.3l-2.9-0.2
			C561.9,419.5,560.5,419.3,560.4,419.2z"/>
		<path id="US-KY" class="st0" d="M681.9,428.6c0.1-2.9,0.7-5.9,1.2-6.5c0.6-0.8,3.3-1.2,6.8-1.2c4.2,0,6.1-0.4,6.5-1.5
			c0.3-0.8,2-2.3,3.8-3.4c2.6-1.5,3.6-3,4.6-7c1.2-4.8,1.5-5.1,5.9-6.5c2.5-0.8,7.8-1.4,11.8-1.4c6.4,0,7.8-0.3,12.3-3.1
			c3-1.8,6.4-3.1,8.3-3.1c3.5,0,7-3.1,13.7-12c1.9-2.5,3.5-4.7,3.7-4.9c0.2-0.2,2.2-0.7,4.6-1l4.2-0.6l0.3-4.8l0.3-4.8l3.4,0.5
			c1.9,0.3,5.2,1.8,7.4,3.4c4.6,3.3,11,4.6,22.1,4.3c6.6-0.2,7.8,0.1,9.5,1.9c1.3,1.4,1.8,3.2,1.6,5.6c-0.3,4,1.8,8.1,8.1,15.5
			l4.2,4.9l-2.4,1.7c-2.8,2-4,3.2-13.6,13.9c-6.2,6.9-7.6,8-10.5,8c-9.3,0.1-70,1.7-73.9,1.9c-2.5,0.1-7.8,0.3-11.8,0.3
			c-5.9,0.1-7.4,0.4-8,1.9c-0.8,2.1,0.1,1.9-13.5,2.7l-10.8,0.7L681.9,428.6z"/>
		<path id="US-LA" class="st0" d="M680.2,638.7c-1.7-0.5-5.1-1.9-7.8-3c-4.3-1.8-5.1-1.8-8-0.5c-3.6,1.6-6.2,2.3-12.7,3.1
			c-6.1,0.8-12.3-2-17.7-8.3c-2.3-2.7-6.3-5.9-8.8-7.1l-4.6-2.3l-2.2,2c-4.1,3.8-12.7,3.2-20.8-1.3c-3.3-1.8-17.9-2.1-19.6-0.3
			c-2.2,2.2-2.1,0.3,0.2-6.7c1.3-3.8,2.6-9,2.9-11.5c1.1-8,1.6-9.9,3.5-13.2c1.7-3,1.8-3.8,0.6-9.8c-0.7-3.6-2.5-9.2-4-12.5
			c-2.5-5.4-2.8-7.3-3.2-20.2l-0.4-14.2h30.6c23.8,0,30.6,0.3,30.6,1.2c0.2,4,1.1,8.6,2.1,11.1c1.6,3.8,0.1,8.6-6.8,21.5
			c-6.4,12.2-7.7,18.7-4.1,20.1c1.2,0.5,6.5,0.9,11.7,1.1c8.3,0.2,17.3,0.6,24.6,0.9c1.9,0.1,2.2,0.9,2.7,7.8
			c0.6,8.6,1.4,9.7,9.5,13.4c3.9,1.8,4.2,2.3,4.2,5.8c0,2.4-0.7,4.4-1.8,5.4c-3,2.7-2.6,6.3,0.8,7.7c3.3,1.4,8,6.4,8,8.6
			c0,0.8-0.9,1.4-1.9,1.4c-1.1,0-2.5,0.2-3.2,0.4S681.9,639.2,680.2,638.7z"/>
		<g id="US-MA">
			<path class="st0" d="M1035.9,262.1c0.2-1,1.2-1.8,2.3-1.8s2.1,0.8,2.3,1.8c0.3,1.3-0.3,1.8-2.3,1.8S1035.7,263.4,1035.9,262.1z"
				/>
			<path class="st0" d="M1046.9,260.2c-1.8-0.7,0.4-3.3,2.9-3.3c2.2,0,2.4,1.1,0.7,2.8C1049.2,260.9,1048.9,261,1046.9,260.2z"/>
			<path class="st0" d="M1024.4,253.8c-2.1-3.3-4.4-6-5-6.1s-1.9-0.2-2.8-0.4c-1.3-0.3-21.5,3.6-31.4,5.9c-1.9,0.5-2.1,0-2.3-5.2
				c-0.1-3.1-0.4-7-0.7-8.5c-0.5-2.6-0.4-2.8,3.3-2.8c2.1,0,5-0.3,6.3-0.5c1.4-0.2,7.2-1.2,12.9-2.1c9.9-1.6,10.5-1.8,13.9-5.5
				c2.7-3,4.2-3.9,6.7-3.9c4.8,0,5.7,1.7,4,7.4c-1.3,4.3-1.3,5,0.3,7.1c1,1.3,3.4,3.4,5.5,4.6c2.1,1.3,3.8,2.6,3.8,2.9
				c0,1.3,6,3.9,7.5,3.3c2-0.8,1.3-5.2-1.2-7.1c-1.5-1.1-1.4-1.2,0.5-1.2c1.2,0,3,1.3,4.3,3.1c2.2,3.1,2.2,3.1,0.3,5.7
				c-1.1,1.4-4.1,3.3-6.9,4.3c-2.7,0.9-6.3,2.4-8,3.3C1030.1,261,1028.6,260.3,1024.4,253.8z"/>
		</g>
		<path id="US-MD" class="st0" d="M952.8,367.2c-0.8-1.8-1.7-2.4-3.1-2.1c-3.7,1-7.7-6.2-8-14.3c-0.1-1.9-0.4-5.2-0.7-7.3
			c-0.4-2.3-0.2-4.3,0.6-5.2c0.7-0.8,1-2.2,0.6-3c-0.8-2.2-4.2-0.3-6.2,3.6c-2.1,4.2-1.1,19.7,1.8,25.3l2,3.9l-2.3-0.7
			c-1.3-0.4-3.6-0.9-5.1-1.3c-3.8-0.8-7.8-4.8-7.8-7.6c0-1.3,1.5-4.1,3.4-6.3l3.4-3.9l-2.6-2.7l-2.6-2.7l-3,2.5
			c-3.2,2.7-6.4,2.6-8.2-0.3c-0.6-0.9-2.5-3.1-4.3-4.9c-2.8-2.8-4-3.3-8-3.3c-6.6,0-13.1,2.2-19.1,6.5c-2.8,2-5.4,3.5-5.7,3.2
			c-0.3-0.3-0.8-2.1-1.1-4c-0.6-3.5-0.6-3.5,3.8-4c2.4-0.3,12.5-2,22.4-3.7c18.6-3.3,18.9-3.3,26.5-4.6c2.5-0.4,5.4-0.9,6.5-1.1
			s3.4-0.6,5.1-0.9l3.1-0.5l1.7,9.3c1,5.1,2.7,12.1,3.8,15.5l2,6.2h7.9h7.9l-0.2,4.4c-0.1,2.4-0.5,4.6-0.7,4.9
			c-0.3,0.2-3.2,0.7-6.6,1C954.3,369.7,954,369.7,952.8,367.2z"/>
		<path id="US-ME" class="st0" d="M1022.3,210.3c-3.4-4.4-10.7-27-13.2-40.5c-0.2-1.4-0.7-3.2-1-4.2c-0.3-0.9-0.1-1.9,0.5-2.3
			c1.6-1,5.3-11.7,5.8-16.6c0.2-2.5,0.9-7,1.4-10c0.5-3,1.2-8.2,1.6-11.4c0.3-3.2,1.8-9.5,3.2-14l2.6-8.1l6.8-0.7
			c3.7-0.4,7.3-1.1,8-1.6s2.2-0.8,3.4-0.7c1.2,0.1,2.9,0.2,3.7,0.3s3,1.5,4.9,3.1c2.8,2.4,3.4,3.7,3.4,6.8
			c-0.1,9.3,7.1,27.3,11.8,29.4c1.4,0.6,2.5,1.6,2.5,2.2c0,0.6,1.3,2.7,3,4.7c2.2,2.7,4.3,3.9,8,4.8c6.2,1.5,7.8,3.2,6.2,6.3
			c-2.8,5.2-7.8,9.7-12.2,11c-3.4,1-6.8,3.5-13.5,9.9c-4.9,4.7-11,10.1-13.5,12s-6.3,5.6-8.5,8.3s-5.7,6.9-7.9,9.4
			c-2.1,2.5-4,4.7-4.1,4.8S1023.8,212.3,1022.3,210.3z"/>
		<g id="US-MI">
			<path class="st0" d="M728.7,291.8c0-0.6,0.7-1.8,1.5-2.6c0.8-0.8,1.5-2.6,1.5-3.9c0-1.3,1-5.4,2.1-9c1.8-5.3,1.9-7,1-9.1
				c-0.6-1.4-1.1-4.5-1.1-7c0-2.4-0.4-4.5-0.8-4.5c-0.5,0-1.9-2.3-3.2-5.2c-2.8-6-3-15.3-0.3-19.4c0.9-1.3,1.8-4.5,2-7.1
				c0.2-2.5,1.1-5.3,1.9-6.1c0.8-0.8,1.5-2.5,1.5-3.7c0-1.4,0.9-2.7,2.5-3.4c1.4-0.6,2.5-1.6,2.5-2.2c0-2.2,2-0.9,2.6,1.7
				c0.9,3.8,1.2,4.2,2.9,3.6c0.8-0.3,1.5-1.8,1.5-3.2c0-1.5,0.6-3.4,1.4-4.4c0.7-1,1.1-2.8,0.9-4.2c-0.4-1.9,0-2.5,1.9-2.7
				c2-0.3,2.4-0.9,2.5-4.3c0.3-9-0.1-8.4,4.5-7.8c2.6,0.3,4.4,0.1,4.8-0.6c0.5-0.8,2.1,0.2,4.9,2.8c2.3,2.2,5.9,4.5,8.1,5
				c6.9,1.9,9.6,5.8,10.6,15.5c1,9.5,0.8,11.2-1.6,14.6c-1.8,2.6-2.6,4.4-2.8,7.1c0,0.4-0.8,0.8-1.6,0.8c-1,0-1.5,1-1.5,3.4
				c0,1.9,0.7,3.9,1.5,4.6c1.8,1.5,2.5,1,10.2-6.4l5.2-5l3.4,3.7c3.3,3.6,5.5,8.8,6.4,15.1c0.2,1.7,0.8,4.1,1.2,5.5
				c1.4,4.3-1.3,11-6.4,16c-2.5,2.5-4.5,5.1-4.5,5.8c0,0.7-0.7,2.4-1.6,3.8c-0.9,1.3-1.6,4.5-1.7,7l-0.1,4.5l-5.6,0.1
				c-3.1,0-6.5,0.3-7.6,0.5c-1.8,0.4-15.4,0.5-21.5,0.2c-1.4-0.1-8.5,0.2-15.8,0.6C732.2,292.8,728.7,292.7,728.7,291.8z"/>
			<path class="st0" d="M705.8,195.8c-3.6-5.8-5.1-7.2-9.4-9.3c-6.8-3.2-18.4-7.2-27.1-9.4c-5.9-1.5-7.2-2.2-8.7-5
				c-1.8-3.2-1.8-3.3,0.2-5.2c1.1-1.1,2.9-2,4-2c3.7,0,12.4-3.2,15.8-5.9c8.3-6.4,17-11.3,18.5-10.4c0.5,0.3-0.1,1.2-1.2,2
				c-2.7,1.9-5.1,6.6-4.1,8.2c0.8,1.3,2.9,1.9,6.8,2c1.2,0,4.5,2.1,7.3,4.6c5.7,5.1,6.6,5.2,20.5,1.3c13.7-3.7,25.3-3.4,26.9,0.8
				c0.3,0.9,1.3,1.3,2.3,0.9c2.9-0.9,11.9,3.9,13.7,7.3c2,3.9,2,4.9-0.4,5.6c-4.4,1.4-7.1,1.7-17.1,2c-5.8,0.2-11.8,0.8-13.3,1.4
				c-1.5,0.6-4.7,1.1-7.1,1.1c-3.6,0-4.6,0.5-6.5,3c-1.3,1.8-3.1,3-4.5,3c-2.1,0-9.7,5.9-9.7,7.5c0,0.4-0.6,1.3-1.3,2
				C710.3,202.4,709.4,201.5,705.8,195.8z"/>
		</g>
		<path id="US-MN" class="st0" d="M544.4,240.8c0.5-13.8,1.4-28.8,2-34.4c0.4-4.3,0.1-7.6-1.2-11.8c-1.7-5.6-1.7-6,0-8.9
			c1.5-2.6,1.7-4.6,1.1-15.7c-0.4-7-0.8-14.7-1-17.2c-0.2-2.5-0.7-14.9-1-27.6l-0.7-23.1l6.9,0.4c21.9,1.2,22.5,1.2,23.9-0.3
			c0.8-0.8,1.5-2.3,1.5-3.4c0-2.2,0.4-2.3,3-0.9c1.3,0.7,2.1,2.7,2.6,6.7c0.8,6.7,2.5,8.8,7.9,9.8c2.2,0.4,4.7,1.3,5.6,2.1
			c1.1,0.9,4.5,1.5,10.8,1.6c9,0.2,9.4,0.3,12.9,3.5c2,1.8,4.3,3.3,5.2,3.3s3.5,1.4,6,3.1c4,2.7,5.2,3,11,2.9
			c6.6-0.2,19.1,1.3,22.3,2.6c1.6,0.7,1.5,0.9-0.8,3.1c-1.4,1.3-3.6,2.4-4.8,2.4c-4.1,0-10.3,3.7-12.6,7.3c-1.2,2-3.5,4.4-5.2,5.3
			c-1.6,1-2.9,2.1-2.9,2.5s-0.6,0.8-1.4,0.8c-0.8,0-2.1,1-2.9,2.3c-0.8,1.3-3.6,3.9-6.1,5.8c-5.2,4-5.6,4.7-6.3,11.4
			c-0.3,2.8-0.7,5.9-0.8,7c-0.2,1.1-0.4,2.2-0.4,2.5c0,0.3-1.7,1.4-3.7,2.4c-4,2.2-6.4,6-5.6,9c0.8,3.1,0.7,15.7-0.1,18.2
			c-0.6,1.7-0.2,2.8,1.5,4.5c6,5.8,20.2,18.4,22.2,19.7c2.1,1.3,4.5,6.1,4.5,9c0,1-9.6,1.2-46.8,0.9l-46.8-0.3L544.4,240.8z"/>
		<path id="US-MO" class="st0" d="M664.7,448.6c-1.4-0.6-2.6-1.2-2.8-1.3c-0.1-0.1,0.1-2.2,0.6-4.8c1.5-8,3.8-7.6-47.4-7.9
			l-44.9-0.3l-0.1-2.5c-0.7-11.9-0.3-20,1.3-27c0.6-2.6,0.5-23.5-0.1-32.5c-0.2-2.8-0.4-6-0.4-7.2s-1.7-3.8-3.7-5.8
			c-3.4-3.4-3.5-3.7-2.1-5.9c2.8-4.3,2.4-7-1.5-10.5c-2.4-2.1-4-4.6-4.7-7.5c-0.6-2.4-1.4-5.1-1.7-5.9c-0.5-1.3,0.4-1.5,5.7-1.2
			c3.5,0.2,19.6,0.6,35.8,1c16.2,0.4,30.3,1.1,31.2,1.6c0.9,0.5,1.6,1.7,1.6,2.7c-0.1,1.9,1,10.3,1.8,14.2c0.3,1.4,3.2,5.2,6.5,8.5
			c3.8,3.8,6.3,7.3,7,9.7c0.6,2.3,2.4,4.8,4.6,6.5c8.3,6.4,7.6,4.9,6.1,13.5c-0.7,4.3-1.1,8.1-0.8,8.6s4.1,3.4,8.3,6.6
			c4.3,3.2,8.2,6.5,8.6,7.4c0.5,0.9,1.2,4.3,1.6,7.6c0.8,6.6,1.1,7.5,2.9,7.5c0.8,0,1.1,1.4,0.9,4.2c-0.3,3.2-1.1,4.9-3.5,7.1
			c-2.4,2.2-3.4,4.1-4.2,8.5C670.1,449.7,669,450.5,664.7,448.6z"/>
		<path id="US-MS" class="st0" d="M676.4,605.4c-3.7-3.1-3.8-3.4-4.2-10.9c-0.2-4.2-0.6-8-0.9-8.5c-0.3-0.5-6.5-1-13.8-1.2
			c-7.3-0.2-15.1-0.5-17.3-0.6c-2.2-0.1-5-0.3-6.2-0.4c-3.6-0.2-2.9-5,2.3-14.3c2.5-4.5,5.7-11.3,7-15c2.3-6.3,2.3-6.9,0.9-9.7
			c-1.1-2.1-1.7-7.2-2.1-16.3c-0.7-15.7,0.3-19.8,6.4-27.9c2.5-3.3,4.4-7,4.7-9.4c0.8-4.9,1.5-6.2,5.2-9.7l2.9-2.8l21.7-0.6
			l21.7-0.6l0,2.8c0,1.6-0.4,6.7-0.9,11.3c-0.5,4.7-1.2,11.9-1.6,16c-0.3,4.1-0.8,8.6-1,10c-1,7.3-1.8,34.7-1.6,58.8l0.2,27.2
			l-2.3,0.1c-8.6,0.2-14.3,1.3-15.7,2.9C680.3,608.5,680,608.4,676.4,605.4z"/>
		<path id="US-MT" class="st0" d="M404.6,188.4c-0.2-0.2-1.8-0.6-3.4-0.9c-3.2-0.6-19.9-4-51.5-10.7c-10.7-2.3-27.8-5.8-38-8
			s-20.5-4.3-23-4.9c-6.6-1.6-6.8-1.5-9,3.6c-2,4.7-2.1,4.7-6.5,4.6c-2.4-0.1-6-0.7-8-1.3c-2-0.6-7-1.2-11.1-1.3
			c-9.4-0.1-9.6-0.3-12.4-15.8c-2.8-15.2-4.1-20-5.4-20.1c-0.6,0-3.3,0-6,0.1c-4.9,0.2-4.9,0.2-4.2-2.6c0.6-2.6,3.1-5.3,4.8-5.4
			c0.4,0,0.8-1.6,0.8-3.6c0-2,0.9-4.8,2-6.3c3-4.3,2.9-9-0.3-12.5c-1.5-1.6-3.4-5.4-4.3-8.4c-0.9-3-2.9-7.7-4.5-10.3
			c-4.5-7.3-4.9-17.5-1.3-32.8l2.7-11.7l12.1,3.9c11.3,3.6,58.4,16.7,65.1,18.1c1.7,0.3,8.2,2,14.5,3.7c9.9,2.6,75,17.5,87.8,20.1
			c2.4,0.5,4.6,1,5,1.3c0.4,0.2,3.6,0.7,7.2,1.1c3.6,0.4,6.6,0.8,6.7,1c0.2,0.2-0.2,2.7-0.7,5.7c-1,5.8-1.6,9.1-2.6,15.3
			c-0.3,2.1-0.8,4.8-1,6c-0.4,2-0.8,4.1-1.9,11.1c-1.8,10.9-9.7,56.5-10.1,58.8C407.6,188.5,405.9,189.6,404.6,188.4z"/>
		<path id="US-NC" class="st0" d="M916.7,487.3c-1.9-1.4-4.8-3.2-6.4-4c-1.7-0.8-7.5-5.1-12.9-9.4l-9.9-8l-11.3,0.4
			c-9.6,0.4-11.6,0.2-13.6-1.3c-3.8-2.9-5.8-3.3-16.9-3.1c-11.1,0.1-18.8,1.8-28.2,6c-5.2,2.3-6.2,2.5-20.2,3.5
			c-4.9,0.3-9.9,0.9-11,1.1c-1.8,0.4-1.8,0.3,0.3-1.3c1.3-1,4.2-3.7,6.5-6.1c2.3-2.4,6.5-5.5,9.2-6.9s7.2-4.5,10-6.9
			c2.8-2.4,8.6-6.1,13-8.3c8.2-4,12.7-7.8,14-11.8c1-3.2,2.9-3.9,12.9-4.7c4.9-0.4,9.8-0.9,11-1c1.2-0.2,4.8-0.6,8-1
			c3.2-0.4,6.8-0.8,8-1s10.7-1.5,21.1-2.9c10.4-1.4,19.9-2.7,21-2.9c1.1-0.2,4.1-0.7,6.6-1c7.1-1,20.7-3.5,27.5-5.1
			c1.7-0.4,2.4,0.2,3.4,2.6c1.2,2.9,1.1,3.2-1.4,5.4l-2.7,2.3l4.9,0.7c3.7,0.5,5.6,1.4,7.5,3.6c3.4,3.8,3.3,5.1-0.9,9.6
			c-1.9,2.1-3.8,4.6-4.1,5.6c-0.5,1.5-4.9,2.4-9.5,1.9c-0.3,0-0.5,1.9-0.5,4.4l0.1,4.4l3.8,0c4.3,0,4.6,0.9,1.5,4.6
			c-4.5,5.3-6.1,6.4-9.6,6.4c-3.1,0-4.5,1-11.3,8.1c-6.8,7.1-7.8,8.6-7.8,11.8c0,3.3-0.4,3.8-4,5.4c-2.2,1-4.1,1.7-4.3,1.7
			S918.6,488.7,916.7,487.3z"/>
		<path id="US-ND" class="st0" d="M536.5,181.3c-0.1-0.1-3-0.5-6.3-0.9c-3.3-0.4-7.1-0.8-8.5-1.1c-1.4-0.2-4.5-0.7-7-1
			c-2.5-0.3-6.1-0.8-8-1c-5.6-0.7-10.1-1.3-16-2c-3-0.4-6.6-0.8-8-1.1c-1.4-0.2-11.5-1.5-22.5-2.9c-11-1.4-21.3-2.7-23-3
			c-4.2-0.7-9-1.3-16.1-2.1l-6.1-0.7l2.7-16.1c1.5-8.9,3-17.6,3.3-19.4c0.3-1.8,0.8-4.5,1-6c0.2-1.5,1.6-9.6,3-17.9
			c1.4-8.3,2.5-15.5,2.5-15.9c0-0.6,12.9,0,17.7,0.9c1,0.2,4.9,0.6,8.8,1c3.8,0.4,8.1,0.8,9.5,1c1.4,0.2,5.2,0.6,8.5,1
			c3.3,0.3,7.6,0.8,9.5,1.1c6.2,0.8,29.4,3.5,34.5,4c2.8,0.3,6.6,0.7,8.5,0.9s6,0.7,9,1.1s5.8,1.1,6.1,1.6c0.3,0.5,0.7,8.2,0.8,17.2
			c0.1,8.9,0.4,17.8,0.6,19.7c0.3,3,1.5,27.7,1.9,38c0.1,3.3-0.1,3.5-3.1,3.6C538.2,181.5,536.6,181.4,536.5,181.3z"/>
		<path id="US-NE" class="st0" d="M546.2,338.7c-3.8-0.4-9.7-1-13-1.3s-12.1-1.3-19.5-2.1c-7.4-0.8-15.8-1.7-18.5-2
			s-6.6-0.7-8.5-0.9c-4.5-0.6-9.9-1.2-23-2.5c-5.8-0.6-11.6-1.3-13-1.5c-2.1-0.3-16.5-1.8-19.5-2c-1.4-0.1-1-8.3,1.1-21
			c0.8-5.1,2.3-4.7-31.6-10.1c-1.4-0.2-3.6-0.6-5.1-0.9l-2.6-0.5l4-23.7c2.2-13,4.1-23.9,4.3-24.1c0.2-0.3,23.4,2.5,36.9,4.4
			c1.7,0.2,8.8,1.1,16,2s14.1,1.8,15.5,2c1.4,0.2,4.9,0.7,7.9,1c3,0.4,6.1,0.8,7,1c0.9,0.2,4.5,0.6,8.1,1c9.8,1,13.3,2.2,16.5,5.6
			c2.9,3,3.1,3.1,9.8,2.5c5.7-0.5,7.5-0.3,11,1.6c2.3,1.2,5.3,2.4,6.7,2.8c2.1,0.6,2.5,1.3,2.6,4.7c0.1,2.2,1.3,6.3,2.7,9.1
			c1.4,2.9,2.9,7.9,3.3,11.4c0.4,3.5,0.8,7,1,7.8c0.2,0.8,0.6,4.7,1,8.5c0.5,4.4,1.7,8.9,3.3,12c1.9,3.8,6,14.5,6.1,16.2
			C556.7,339.7,556.7,339.7,546.2,338.7z"/>
		<path id="US-NH" class="st0" d="M998,231.1c-1.2-0.2-2.3-0.7-2.3-1.1c0-0.4-0.3-8.7-0.6-18.5l-0.5-17.8l3.6-4
			c2.6-2.8,3.4-4.6,3.1-6.2c-2.4-10.8-2.4-11-0.4-13.9c3.1-4.3,4.3-3.8,5.2,2.2c0.7,4.1,3.4,13.9,7.3,26.6c2.6,8.3,6.8,15.7,10,17.7
			c0.7,0.4,1.3,2,1.3,3.4c0,1.9-0.4,2.4-1.6,1.9c-1.1-0.4-3.1,0.9-6.1,3.8c-3.6,3.6-5.5,4.6-9.2,5.1c-2.5,0.3-5.3,0.7-6.1,0.9
			S999.2,231.3,998,231.1z"/>
		<path id="US-NJ" class="st0" d="M961.9,339.7c-5.5-2.7-7.2-5.4-7.1-11c0.1-2.4,0-4.9-0.2-5.5c-0.2-0.6,2-3.6,4.9-6.7
			c2.9-3,5.2-6,5.2-6.5c0-0.5-1.8-2.4-4-4.2c-5-3.9-6.5-6.6-5-8.5c1.1-1.4,1.4-2.6,2.4-10.5c0.3-2.4,0.9-4.8,1.4-5.3
			c1.2-1.2,15.4,3.9,17.4,6.3c1.2,1.5,1.5,2.7,0.8,4.3c-1,2.6,0,8.5,2.3,13.9c0.9,2.1,1.4,5,1.2,6.5c-0.2,1.5-0.6,4.1-0.9,5.7
			c-0.7,5-8.3,20-11,21.8C966.2,342.2,967.1,342.2,961.9,339.7z"/>
		<path id="US-NM" class="st0" d="M364.2,531.7c-5.5-1-11.6-2.1-13.5-2.4c-5.2-0.8-26-4.5-30-5.2c-1.9-0.4-8-0.7-13.5-0.7l-10,0
			l-0.3,2.8c-0.4,3.2-1.3,3.3-8.5,1.3c-2.8-0.8-8.1-1.7-11.7-2c-3.6-0.3-7.5-0.9-8.8-1.2c-4.4-1.1-7.1,0.4-8.4,4.7
			c-1.2,3.9-1.3,4-5.7,4c-5.7,0-12.2-1.9-12.2-3.6c0-1.3,6.7-31.6,12.2-54.9c1.7-7.2,3.2-14.1,3.5-15.4c0.2-1.3,1.1-5.3,2-9
			c0.9-3.7,1.7-7.5,2-8.6c0.2-1.1,3.3-14.6,6.8-30l6.4-28l2.9,0.1c1.6,0,4.5,0.4,6.4,0.7c11.7,2.1,56.8,10.8,58,11.2
			c0.8,0.2,3.1,0.7,5,0.9c4.6,0.7,39.2,7.3,45.3,8.7c4.6,1,4.8,1.2,4.3,4.2c-0.3,1.7-0.7,4.3-0.9,5.6c-0.2,1.4-0.7,4.1-1,6
			c-0.9,5.3-1.5,8.8-2.6,16c-1.3,7.9-1.7,10.6-2.4,14.5c-0.3,1.7-3.2,19.4-6.5,39.5c-7.5,45.6-7,43-7.8,42.8
			C374.5,533.6,369.7,532.8,364.2,531.7z"/>
		<path id="US-NV" class="st0" d="M141.9,390.5c-1.8-3.4-5.4-10.3-8-15.2s-8.1-15.3-12.1-23c-4-7.7-7.7-14.4-8.1-15
			c-0.4-0.6-3.5-6.4-7-13c-3.4-6.6-7.6-14.5-9.3-17.5c-1.6-3-5-9.3-7.5-14c-2.5-4.7-6.3-11.9-8.5-16c-6.8-12.7-7.2-9.8,6.8-49.4
			c6.8-19.3,12.8-35.4,13.3-35.9c0.9-0.9,9.9,2,37.6,12.3c7.7,2.9,21.2,7.4,30,10.2s20.9,6.5,26.9,8.4c6,1.9,11,3.5,11.2,3.7
			c0.3,0.3-32.7,114.8-35.5,123.3c-0.5,1.7-1.2,4.1-1.4,5.5s-1.7,5.9-3.3,10c-3.1,8-2.7,7.7-9.9,6.7c-5.7-0.8-10.2,7.5-10.4,18.8
			C146.6,397.2,145.4,397.3,141.9,390.5z"/>
		<path id="US-NY" class="st0" d="M981.4,295.5c-0.2-0.6-0.2-2.5,0.1-4.2c0.8-4.9-2.7-7.7-14-11.4c-10.1-3.3-11.1-4-19.6-13.9
			l-3.8-4.4l-16.9,2.6c-9.3,1.4-18.1,2.8-19.4,3.1c-1.4,0.2-11.5,1.8-22.5,3.5s-20.7,3.3-21.6,3.6c-1.1,0.3-1.8-0.3-2.2-1.7
			c-0.6-2.2,2.3-6.2,11.1-15.5c1.8-1.9,3.2-3.9,3.2-4.5c0-0.5-1.1-3.2-2.5-5.9c-3-5.8-3.1-7-0.8-7c1,0,2.6-0.6,3.6-1.4
			c1.3-1,5.7-1.4,15.8-1.5c15.2-0.2,16.9-0.5,21.7-4.6c5.1-4.3,6.4-8.4,4.7-15.4l-1.4-5.8l5.8-6.8c3.2-3.7,6.8-8.2,8-9.9
			s4.6-5,7.5-7.4l5.3-4.2l8.3,0.2c4.6,0.1,9.3-0.1,10.5-0.5c1.8-0.6,2.3-0.2,3.2,2.6c1.6,5.1,2.3,9.7,2.5,17.4
			c0.2,6,0.6,7.5,2.8,10.2c5.1,6,9.4,28.4,8.6,44.5c-0.3,7.1-0.1,11.7,0.9,14.8c0.7,2.5,1.4,5.7,1.4,7.2c0,1.5,0.4,2.8,1,2.8
			c0.6,0,0.6,0.9,0,2.5c-0.6,1.6-0.6,2.7,0,3.1c0.5,0.3,1,0.2,1-0.3c0-1.3,4.8-3.4,9-3.9c1.9-0.3,4.8-1.5,6.5-2.7
			c4.4-3.3,9.7-4.9,10.6-3.3c0.5,0.8-0.2,2.2-1.9,3.7c-1.5,1.3-4.3,3.9-6.3,5.8C997.6,290.4,982,297.2,981.4,295.5z"/>
		<path id="US-OH" class="st0" d="M813.3,373.4c-1.9-2.2-2.4-2.3-10.1-1.8c-10.1,0.7-18-0.9-21.6-4.4c-1.8-1.7-4.2-2.7-7.3-3.1
			c-4.5-0.5-4.6-0.6-4.6-4.1c0-2-0.2-7.2-0.5-11.6s-0.6-13.5-0.9-20.2s-0.8-16.7-1.1-22.2c-0.5-8.1-0.3-10.1,0.8-10.2
			c0.7-0.1,2.5-0.2,3.9-0.4c1.4-0.1,7-0.6,12.5-1c5.5-0.4,10.2-0.8,10.5-0.8s3.2,1.2,6.4,2.7c6.3,3,11.8,3.5,14.5,1.2
			c0.9-0.7,3.7-2.1,6.2-3c2.5-0.9,5.4-2.5,6.5-3.4c6.5-5.9,16.3-12.1,16.5-10.5c1.7,15.7,1.5,38.8-0.5,54.3
			c-0.1,0.8-1.1,3.9-2.1,6.8c-1.6,4.3-2.7,5.8-6.2,7.8c-4.9,2.9-7.7,6.4-8.7,11c-0.5,2.5-1.3,3.3-3.6,3.8c-2.1,0.5-3.1,1.4-3.5,3.3
			c-0.7,3.5-2.7,7.4-4,7.8C815.7,375.6,814.3,374.7,813.3,373.4z"/>
		<path id="US-OK" class="st0" d="M559.2,505.7c-4.3-2.3-8.4-3.8-10.5-3.8c-1.9,0-10.6,0.3-19.4,0.6c-13.5,0.5-16.7,0.3-20.5-1.1
			c-2.5-0.9-6.1-1.9-8-2.2c-2.1-0.3-5.2-2.1-7.8-4.3c-3.3-2.9-5.5-4-9-4.4c-9.4-1.1-13.6-2.6-16.3-5.5c-1.6-1.7-5-3.6-8.3-4.7
			l-5.7-1.8l0.6-5c0.3-2.8,0.8-8.2,1.1-12c0.3-3.8,0.8-8.6,1-10.5c0.2-1.9,0.7-7.1,1-11.5s0.8-9.2,1.1-10.7c0.6-3-0.1-3.6-4.7-4.3
			c-5.4-0.8-33.6-4.5-43.4-5.7c-12.5-1.5-11.9-1.1-11.1-6.6c0.4-2.6,0.8-4.8,0.9-4.9c0.1-0.1,3.4,0.3,7.2,1.1c3.8,0.7,10.6,1.6,15,2
			s10,0.8,12.5,1.1c2.5,0.2,7.4,0.7,11,1c3.6,0.3,8.5,0.8,11,1s7.4,0.7,11,1s8.5,0.8,11,1s7.9,0.7,12,1s9.1,0.8,11,1s6.9,0.7,11,1
			s9.1,0.8,11,1s7.3,0.7,12,1c4.7,0.3,9.6,0.8,11,1s6.3,0.7,11,1c4.7,0.4,8.6,0.7,8.6,0.8c0.5,0.6,1.5,29.7,1.4,40.6
			c-0.3,26.6-0.7,45.1-1.1,45.4C566.4,509.4,563,507.8,559.2,505.7z"/>
		<path id="US-OR" class="st0" d="M125.2,195.3c-14.3-5.2-30.7-11.2-36.5-13.4c-15.9-5.9-55.3-20.2-63-22.8
			c-2.5-0.8-4.7-1.7-4.8-1.8s0.1-1.8,0.7-3.6c0.6-1.8,1.3-5.2,1.5-7.4c1.1-9.7,3.4-14.7,10.4-22.4c3.8-4.1,8.7-10.7,11-14.5
			c4.8-7.9,24.1-46.9,24.1-48.6c0-0.7,0.7-0.8,1.8-0.4c1,0.4,3.2,1.1,4.9,1.6c3.1,0.9,8.2,5.8,8.5,8.2c0.1,0.6,0.3,1.6,0.4,2.2
			c0.1,0.6,0.3,2.6,0.3,4.6c0.2,5.1,2.8,7.4,10.3,8.9c3.5,0.7,10.2,3,14.9,5c4.7,2.1,10.5,4.1,13,4.5s5.2,0.9,6,1
			c0.8,0.1,6,0.6,11.4,1c11.4,0.8,14.4,1.6,32,7.9c7.1,2.5,13,4.6,13.1,4.6c0.1,0,0.2,0.6,0.3,1.2c0.1,0.7,0.7,4.1,1.3,7.5l1.2,6.2
			l-3.6,4c-2,2.2-3.6,4.4-3.6,4.9c0,1.6-5.4,6.9-8.6,8.5c-3.7,1.9-4.6,4.5-3.6,11.2c1,6.8,1,6.7-2.2,9.8c-2.2,2.1-3,3.8-3.3,7.4
			c-0.4,4.5-10.2,34.3-11.3,34.2C151.4,204.8,139.5,200.5,125.2,195.3z"/>
		<path id="US-PA" class="st0" d="M854.9,336.1c-0.5-1-1.5-5.2-2.3-9.3c-1.5-8.4-1.6-8.9-1.9-9.2c-0.5-0.4-0.7-4-1.5-18.2
			c-0.4-7.7-0.8-15.6-1-17.5c-0.2-2.9,0.2-3.8,2.3-5.2c1.4-0.9,3.6-2.4,4.9-3.3c2.2-1.6,2.3-1.6,2.9,1.6l0.6,3.2l5.5-0.7
			c3-0.4,6.4-0.8,7.6-1.1c1.2-0.2,5.1-0.8,8.6-1.4c3.6-0.6,8.3-1.3,10.5-1.7c2.2-0.4,14.7-2.3,27.8-4.4l23.8-3.7l3.5,3.8
			c1.9,2.1,3.5,4.3,3.5,4.8s1.6,2,3.5,3.3c1.9,1.3,3.3,2.6,3.1,2.8c-0.5,0.5-1.3,4.4-2.2,11.2c-0.4,2.6-1,5-1.5,5.3
			c-2.3,1.4-0.7,5.9,3.6,9.8l4.5,4.1l-6,6.1c-3.3,3.4-7.2,6.6-8.7,7.2s-8.6,2-15.7,3.2c-7.2,1.2-13.9,2.3-15,2.5s-10.1,1.7-20,3.4
			c-23.4,4-21.8,3.8-31.2,4.5C856.8,337.9,855.8,337.7,854.9,336.1z"/>
		<path id="US-RI" class="st0" d="M1013.4,262.1c-1-3.7-2-7.8-2.3-9c-0.5-2.1-0.3-2.2,3.4-2.2c3.7,0,4.2,0.4,7.3,5.1
			c2.5,3.9,3,5.5,2.3,6.7c-1,1.6-7.1,6.1-8.3,6.1C1015.4,268.8,1014.4,265.8,1013.4,262.1z"/>
		<path id="US-SC" class="st0" d="M868.6,542.3c-1.4-0.7-3.6-3.4-5-5.9c-1.3-2.5-2.7-4.6-3-4.6c-1.4,0-5.9-5.4-5.9-7.1
			c0-1-1.7-3.8-3.8-6.3s-5.1-6.3-6.7-8.4c-1.6-2.1-5.5-5.8-8.5-8.2c-3-2.4-7.8-7.2-10.5-10.8c-2.8-3.5-6.6-7.2-8.6-8.2
			c-4.7-2.4-6-4.1-5.3-6.8c0.6-2.4,5.4-4.9,16.9-8.7c12.1-4,33.4-3,33.4,1.6c0,0.7,4.2,1,12.4,0.8c9.7-0.2,12.8,0,14.2,1.2
			c1,0.8,2.5,2,3.4,2.6s4.2,3.4,7.5,6.1c3.3,2.7,8,5.9,10.5,7.2c2.5,1.2,4.7,2.4,4.9,2.6c0.2,0.2-1.4,2.5-3.6,5.1
			c-4.9,5.8-5.9,7.6-6.8,12.8c-0.5,2.7-1.9,5.1-4.4,7.5c-2,1.9-5.5,5.7-7.7,8.3c-2.2,2.6-7.8,8.3-12.5,12.6
			C871.5,543.3,871,543.5,868.6,542.3z"/>
		<path id="US-SD" class="st0" d="M531.3,264.2c-4.1-2.1-5.9-2.5-11-2.1c-5.7,0.4-6.4,0.2-10.2-2.9c-4.2-3.4-7.4-4.2-22.4-5.9
			c-3-0.3-6.2-0.8-7-1s-4.2-0.7-7.5-1c-3.3-0.3-7.1-0.8-8.5-1s-4.5-0.6-7-0.9s-6.3-0.8-8.5-1.1c-2.2-0.3-8.9-1.2-15-2
			s-13.7-1.8-17-2.2c-13.8-1.6-15-1.9-14.8-4c0.2-2,5.9-36,6.8-40.4c0.3-1.4,0.7-4.1,1-6c0.3-1.9,1.3-8.3,2.3-14
			c1.7-10,1.9-10.5,4.2-10.4c2.7,0.1,15,1.4,17.8,1.9c2.5,0.4,10,1.4,15.7,2.1c2.8,0.3,6.1,0.8,7.5,1s5.2,0.7,8.5,1s6.7,0.8,7.5,1
			c0.8,0.2,7.3,1.1,14.5,2c13.2,1.6,39.5,5.1,45,5.9c1.7,0.2,4.3,0.5,5.8,0.5c2.4,0.1,2.7,0.3,1.8,2c-0.8,1.4-0.5,3.6,1,8.2
			c1.3,4.2,1.8,7.7,1.5,10.3c-0.9,6.4-1.5,15.1-2,28.9c-0.3,7.1-0.9,13.2-1.4,13.5s-0.9,4.8-0.8,9.8
			C539.3,268.2,539.2,268.3,531.3,264.2z"/>
		<path id="US-TN" class="st0" d="M662.7,474.5c0-2.8,2.2-8.6,4.8-12.7c3.6-5.7,6.2-12.2,6.9-17.4c0.6-4.7,2.4-7,5.6-7.2
			c1.2-0.1,7.9-0.5,14.8-0.9c10.4-0.6,12.7-1,14-2.6c1.4-1.7,3.8-1.9,26.5-2.5c66.5-1.6,81.5-2.1,94.8-3.2c3.7-0.3,6.8-0.3,6.8,0.1
			c0,1.4-2.4,5-4.4,6.7c-1.2,1-5.4,3.3-9.4,5.2c-4,1.9-9.8,5.7-13,8.4c-3.2,2.7-7.8,5.9-10.3,6.9s-5.9,3.6-7.5,5.6s-5.2,5.1-8,6.8
			c-2.8,1.8-5.2,3.5-5.5,3.9c-1.1,1.4-12.3,1.9-59,2.4c-26.7,0.3-50.4,0.8-52.8,1C664.1,475.6,662.7,475.4,662.7,474.5z"/>
		<path id="US-TX" class="st0" d="M485.8,716.8c-4.5-3.3-6.2-4-10.3-4c-3.8,0-6-0.7-10.1-3.4c-2.9-1.9-7-4-9.2-4.7s-4.6-2.1-5.3-3
			c-0.7-0.9-1.9-2.3-2.7-3.1c-1.3-1.3-3.3-9-2.5-9.3c0.2-0.1-0.8-1.3-2.3-2.6c-2.3-2.2-2.8-3.5-3.3-10.8c-0.6-7.4-1.1-9.2-4.8-15.4
			c-6.6-11.1-13.4-25.2-14.2-29.2c-1-5.4-6.1-14.9-9.6-18.1c-1.7-1.5-3.9-4.4-5-6.4c-1.5-3-2.6-3.8-5.6-4.3
			c-2.1-0.4-6.2-1.2-9.3-1.9c-8.3-1.8-14.7-0.2-17.1,4.4c-1,1.9-1.9,4-1.9,4.7s-1.5,2.8-3.4,4.8c-2.6,2.8-4.1,3.6-6.8,3.5
			c-4.8-0.1-5.8-0.7-13.4-7.4c-10.1-9-15.3-16.1-15.6-21.6c-0.1-2.4-1.1-6.6-2.1-9.2c-1-2.6-1.8-6.1-1.8-7.7c0-3-2.7-6.6-11.5-15.5
			c-2.2-2.2-4.8-5.7-5.8-7.8s-2.6-4.2-3.6-4.7c-1-0.5-2.4-2.5-3-4.2c-0.6-1.8-2.3-4.4-3.6-5.8c-1.6-1.7-2.4-3.4-2.1-5
			c0.3-2.3,0.8-2.4,6.5-2.5c3.4,0,10.8,0.8,16.4,1.7c10.9,1.9,14.6,2.5,20.5,3.4c2.1,0.3,5.6,1,7.8,1.4c2.2,0.5,6.2,1.2,9,1.5
			s5.3,0.8,5.6,1c1.4,0.9,12.9,1.6,12.9,0.8c0-0.5,0.7-4.7,1.5-9.4c0.8-4.7,1.7-9.8,1.9-11.5c0.2-1.7,2.5-15.6,5-31
			s4.8-29.5,5.1-31.4s0.7-4.3,0.9-5.5c0.2-1.1,0.6-3.7,0.9-5.7s0.7-4.7,1-6s0.7-4.2,1.1-6.5s0.8-4.7,0.9-5.5c0.2-0.8,0.4-2,0.4-2.6
			c0.1-0.8,2.6-0.7,8.6,0.2c4.7,0.7,11.3,1.5,14.8,1.9c3.4,0.4,6.9,0.8,7.7,1c0.8,0.2,4,0.7,7,1c3,0.3,8.2,1,11.5,1.5
			s6.4,0.9,6.9,0.9c0.5,0,0.6,3.5,0.2,7.8c-1.3,16.4-3.6,40.8-4,42.5c-0.5,2.2,0.8,3.2,7.4,5.3c3.3,1.1,6.4,2.8,7.7,4.5
			c2.3,2.9,8.1,4.9,16.1,5.6c4.8,0.4,10,3.2,11.9,6.4c0.8,1.3,2.3,2.1,4,2.1c1.5,0,5.2,0.9,8.2,2.1c5,1.9,7.2,2.1,26,1.8
			c22.5-0.3,21.9-0.4,31.8,6.4c2.4,1.6,5.9,3.4,7.8,3.9l3.4,0.9v21.8v21.8l2.9,6.4c1.6,3.5,3.4,9.1,4.1,12.5c1.1,5.5,1,6.5-0.8,10
			c-1.1,2.1-2.3,6.8-2.7,10.4s-1.5,8.7-2.5,11.5c-1,2.8-2.1,6.5-2.5,8.3c-0.5,2.5-1.2,3.2-3,3.2c-3.9,0-9.3,2.8-13.1,6.9
			c-3.9,4.2-14.2,10.4-26.5,16.1c-6.7,3.1-12.6,6.4-14,8c-0.3,0.3-2.8,2.3-5.5,4.5c-6.3,4.9-9.4,8.3-15.2,16.8
			c-4.5,6.5-4.6,6.9-4.4,13.5c0.1,3.7,0.6,8.1,1.1,9.8c1.1,3.4,2,19.3,1.3,21.2C493.2,721.6,491.6,721,485.8,716.8z"/>
		<path id="US-UT" class="st0" d="M211.7,227.5c-0.8,0-1.1,0.4-1.3,1.2c-0.3,0.9-2.5,8.6-5,17.2c-2.5,8.5-6.2,21.1-8.2,28
			c-2,6.9-5.2,17.9-7.1,24.5s-5.1,17.4-7,24s-3.9,13.3-4.4,15c-0.5,1.7-1.7,6.2-2.8,10c-1.1,3.8-1.9,7-1.8,7.1
			c0.1,0.1,21.8,5.5,48.2,12.2c47.2,11.8,50.5,12.6,50.5,11.9c0-0.2,3.2-14.5,7.1-31.8c3.9-17.3,7.3-32.5,7.6-33.9
			c0.3-1.4,1.8-8.5,3.5-15.8c1.7-7.3,3.2-14.5,3.5-15.9s0.7-2.9,0.9-3.3c0.2-0.4-1.5-1-3.8-1.4c-8.2-1.4-34.6-7.3-35.7-8
			c-0.6-0.4-0.9-1.4-0.6-2.2c0.8-2.2,5.8-20.7,6-22.2c0.1-1.1-16.7-6.9-47.6-16.2C212.7,227.6,212.1,227.4,211.7,227.5z
			 M224.1,241.1c0.3,0,0.8,0.1,1.4,0.2c3.6,0.9,7.2,5.5,7.2,9.3c0,3.5,1.9,4.3,4,1.8c1.6-2,4-0.2,3.3,2.5c-0.3,1.1,0,3.4,0.6,5.1
			c1.2,3.5,0.2,5.5-3.4,6.8c-5.6,2.1-6.1,2-8.7-0.7c-5.2-5.5-6.8-10.3-6.1-18.2C222.8,242.6,223,241.2,224.1,241.1z"/>
		<g id="US-VA">
			<path class="st0" d="M814.7,418.5c8.1-9.7,13.2-13.9,15.5-13.1c0.9,0.3,1.6,1,1.6,1.4s1.6,1.1,3.5,1.4c2.6,0.5,6.3-0.3,14.6-3
				c10-3.3,11.3-4,12.4-6.8c0.7-1.7,2.2-4.2,3.2-5.6c1.1-1.4,3.4-6.3,5.2-11s3.6-8.8,3.9-9.2s2.4-0.9,4.6-1.3c6.7-1,7.2-1.4,7.9-5.8
				c0.5-3.4,1.7-5.1,6.1-9c3-2.7,5.4-5.2,5.3-5.5c-0.4-2.6,0.3-3.1,2.7-2.2c4.1,1.5,7.3,1.2,8.4-1c1.1-2,1.1-2,3,0
				c1.1,1.1,2.4,2,2.9,2c0.5,0,2.5,0.7,4.5,1.5c3.6,1.5,3.6,1.5,2,4c-1.5,2.3-1.5,2.8,0.1,6.5c1.4,3.2,2.9,4.5,7.9,6.9
				c3.4,1.6,7.4,3.3,8.9,3.6c3.1,0.8,5.2,3.6,3.7,5.1c-0.6,0.6,0.1,2.2,2,4.4c2.3,2.7,3,4.4,3,8.1c0,3.9,0.5,5.1,3.2,7.5
				c6.4,5.8,6.9,6.4,6.9,8.3c0,1.1-0.6,2-1.2,2.1c-1.8,0.1-5.4,0.8-13.2,2.4c-7,1.5-35.1,5.8-45.5,7c-3,0.3-6.2,0.8-7,1
				s-4,0.6-7.1,1c-3.1,0.3-6.5,0.8-7.5,1c-3.3,0.6-10.6,1.5-21.9,2.6c-6.1,0.6-12.8,1.3-15,1.5s-9.4,0.7-16,1s-12.8,0.8-13.8,1.1
				C808.3,426.8,810.6,423.4,814.7,418.5z"/>
			<path class="st0" d="M953.2,394.8c-0.9-1.4,0.5-9.7,2.2-14.3c0.8-2.1,1.3-4.6,1-5.7c-0.5-2,1.5-3,6.1-3.1c1.9,0,2.2,0.4,1.6,1.7
				c-0.4,1-1.5,3.8-2.4,6.2c-0.9,2.5-2.4,5.3-3.4,6.2c-2,2.1-2.2,3.5-0.6,4c0.8,0.3,0.6,1.2-0.6,3.1
				C955.4,396,954.2,396.5,953.2,394.8z"/>
		</g>
		<path id="US-VT" class="st0" d="M980.7,231.6c0-4.1-4.9-19-7-21.2c-1.5-1.6-2.1-3.9-2.4-9.6c-0.2-4.1-0.7-8.6-1-10
			s-0.9-4.1-1.2-6.1l-0.6-3.6l9.4-2.1c5.1-1.2,11.4-2.4,14-2.8l4.6-0.6l0.7,4.7c0.6,4.3,0.4,5-2.4,8.2l-3.1,3.6l0.3,20.4
			c0.3,17.6,0.1,20.4-1.2,20.4c-0.8,0-3.4,0.3-5.8,0.6C981,234,980.7,233.9,980.7,231.6z"/>
		<path id="US-WA" class="st0" d="M170.5,101.2c-14.5-5.2-21.4-6.7-35.3-7.7c-10.5-0.7-16.3-2.1-24.6-5.9c-4.1-1.9-10.4-4-13.9-4.7
			c-3.6-0.7-7-2.1-7.7-2.9c-0.7-0.9-1.2-3.8-1.2-6.6c0-4.6-0.5-5.5-4.3-9.6c-3.1-3.3-5.5-4.8-8.9-5.7l-4.6-1.2l0.8-3.8
			c1-4.6,5.6-33,6.9-43.2c0.5-4.1,1.5-7.8,2.3-8.2c1.5-0.9,4.2,0.6,11.3,6.6c4.3,3.6,16.1,8.9,20,9c0.6,0,0.9-1.4,0.7-3.1
			c-0.2-2.4,2.6-11.6,4.4-14.1c0.1-0.2,2.9,0.8,6.1,2.1s23.4,9.1,44.9,17.2s39.2,14.9,39.4,15.1c0.2,0.2-1.7,6.1-4.2,13.1
			s-7.1,20-10.3,28.8c-3.9,11-5.9,18.2-6.3,23.1l-0.6,7.1L170.5,101.2z"/>
		<path id="US-WI" class="st0" d="M666.2,274.8c-20-0.7-20.4-0.9-21.9-13.5c-1.5-12.9-5.5-24.7-8.9-26.3c-1.2-0.6-6.6-5.1-12.1-10.1
			l-9.9-9.1l0-12.2c0-10.6,0.3-12.4,1.8-13.3c5.8-3.4,7.5-5.7,7.6-10.4c0.2-7.4,1.1-10.5,3.4-10.8c3.6-0.5,18.9-5.4,19.9-6.4
			c1.6-1.6,2.4-1.1,2.1,1.6c-0.2,2,0.3,2.8,2.3,3.5c3.2,1.2,6.7,4.7,7.6,7.5c0.5,1.7,2.7,2.7,10.4,4.9c11.8,3.3,26,8.3,28.9,10.2
			c3.2,2,9,12.2,9.8,17c0.4,2.3,1.3,4.2,1.9,4.2c1.9,0,5.7-4,7.2-7.6c1.7-4.1,3.9-4.6,2.8-0.6c-0.4,1.5-0.7,3.8-0.6,5
			c0.1,1.2-0.3,2.2-0.8,2.2c-2.1,0-4,3.3-5,8.8c-1.4,7.5-3,13.3-4.2,15.6c-2.7,5.1-3.6,18.3-2.3,32.9l0.7,7.8l-12.9-0.3
			C687,275.5,674.4,275.1,666.2,274.8z"/>
		<path id="US-WV" class="st0" d="M835.8,404.7c-6.4-2.4-17.9-15.1-18.6-20.7c-0.3-2.2,0.4-4.1,2.5-6.9c1.6-2.1,2.9-4.9,2.9-6.1
			c0-1.7,1-2.7,3.4-3.7c2.7-1.1,3.5-2.2,4-4.9c0.8-4.3,3.8-7.9,8.9-10.8c4.9-2.8,8.7-11.4,8.7-19.9c0-7.7,1.6-8.2,2.4-0.7
			c1,9.1,2.5,10.1,13.8,9.7l9.1-0.3l1.1,5c1,4.5,1.3,5,3.6,4.7c1.4-0.1,5-2,8.1-4.2c6.7-4.7,16.2-7.2,20.3-5.3
			c2.9,1.3,3.1,2.1,1.2,4.7c-1.3,1.8-1.5,1.8-5.6-0.4c-4.8-2.5-5.6-2.1-6.5,2.7c-0.6,3.2-4.8,7.9-8.6,9.3c-1.1,0.4-2,2.3-2.4,5.3
			c-0.8,5-1,5.2-7.3,5.8c-2.4,0.2-4.4,0.6-4.5,0.8c-0.1,0.2-2,4.7-4.1,9.9c-2.1,5.2-5.1,11.5-6.7,13.9c-1.6,2.4-2.9,4.7-2.9,5.1
			c0,0.7-5.6,2.8-16,6.2C839.7,405,837.4,405.2,835.8,404.7z"/>
		<path id="US-WY" class="st0" d="M379.7,291.8c-4.7-1-11.7-2.5-15.5-3.4c-3.8-0.8-14.7-3.1-24-5.1c-19.6-4.1-60.5-12.8-71.5-15.2
			c-4.1-0.9-8.1-1.6-8.8-1.6c-0.7,0-1.1-0.7-0.8-1.6c0.3-0.9,1.2-4.5,2.1-8.1c0.9-3.6,2-7.6,2.5-9c0.5-1.4,1.2-3.9,1.4-5.6
			c0.5-3.1,3.5-16,10.5-44.9c2.1-8.8,4.4-18.5,5-21.6s1.7-6.4,2.4-7.4c1.4-1.9,1.2-1.9,50.6,8.5c15.2,3.2,39.2,8.2,49.5,10.4
			c0.6,0.1,6.1,1.3,12.3,2.6l11.3,2.4l-0.5,3.6c-0.3,2-3.2,19.8-6.6,39.6c-3.4,19.8-6.3,37.1-6.6,38.5c-0.7,4.5-1.4,8.4-2.5,13.9
			c-0.6,3-1,5.6-1,5.8C389.7,294,389.3,293.9,379.7,291.8z"/>
	</g>
</g>
</svg>
